<svg height="512pt" viewBox="-16 0 512 512.001" width="512pt" xmlns="http://www.w3.org/2000/svg"><g fill="#B8B7B7"><path d="M262.844 140.559c-12.7 12.671-33.281 12.671-45.98 0-12.696-12.672-12.696-33.22 0-45.891 12.698-12.672 33.28-12.672 45.98 0 12.695 12.672 12.695 33.219 0 45.89zm0 0M307.258 189.727c-3.961 0-7.922-1.512-10.938-4.54-6.03-6.039-6.02-15.824.02-21.851 12.238-12.215 18.976-28.453 18.976-45.723s-6.738-33.508-18.976-45.722c-6.04-6.032-6.05-15.813-.02-21.856 6.028-6.039 15.813-6.05 21.852-.02 18.09 18.055 28.05 42.06 28.05 67.598 0 25.535-9.96 49.543-28.05 67.598a15.395 15.395 0 01-10.914 4.516zm0 0"/><path d="M342.21 235.223a15.4 15.4 0 01-10.937-4.536c-6.03-6.042-6.02-15.824.02-21.855 24.414-24.367 37.863-56.762 37.863-91.219s-13.449-66.851-37.863-91.218c-6.04-6.032-6.05-15.813-.02-21.856 6.032-6.039 15.813-6.05 21.852-.02 30.266 30.208 46.938 70.372 46.934 113.094 0 42.723-16.668 82.89-46.934 113.098a15.407 15.407 0 01-10.914 4.512zm0 0M172.371 189.727a15.41 15.41 0 01-10.918-4.516c-18.09-18.055-28.05-42.063-28.05-67.598 0-25.539 9.96-49.543 28.05-67.597 6.04-6.032 15.824-6.024 21.852.02 6.03 6.038 6.02 15.823-.02 21.855-12.238 12.214-18.976 28.453-18.976 45.722s6.738 33.508 18.976 45.723c6.04 6.027 6.05 15.812.02 21.851a15.401 15.401 0 01-10.934 4.54zm0 0"/><path d="M137.418 235.223a15.397 15.397 0 01-10.918-4.516C96.234 200.5 79.566 160.336 79.566 117.613c0-42.726 16.668-82.89 46.934-113.097 6.04-6.028 15.824-6.02 21.852.023 6.03 6.04 6.02 15.82-.02 21.852-24.414 24.367-37.863 56.761-37.863 91.218s13.449 66.856 37.863 91.223c6.04 6.031 6.05 15.813.02 21.856a15.397 15.397 0 01-10.934 4.535zm0 0M443.48 261.938H36.148C16.184 261.938 0 278.12 0 298.082v177.77C0 495.816 16.184 512 36.148 512h407.329c19.964 0 36.148-16.184 36.148-36.148v-177.77c0-19.96-16.184-36.144-36.145-36.144zM118.871 465.62H61.938c-8.532 0-15.45-6.918-15.45-15.453V323.77c0-8.532 6.918-15.454 15.45-15.454 8.535 0 15.453 6.918 15.453 15.454v110.945h41.48c8.535 0 15.453 6.918 15.453 15.453s-6.918 15.453-15.453 15.453zm63.328-15.453c0 8.535-6.918 15.453-15.453 15.453s-15.453-6.918-15.453-15.453V323.77c0-8.532 6.918-15.454 15.453-15.454s15.453 6.918 15.453 15.454zm130.016-121.93l-38.16 126.395-.012.035c-4.145 14.144-25.273 13.797-29.563 0l-.011-.035-38.16-126.395c-2.465-8.172 2.156-16.793 10.328-19.261 8.164-2.465 16.793 2.156 19.258 10.328l23.367 77.394 23.367-77.394c2.469-8.172 11.09-12.797 19.262-10.328 8.168 2.468 12.793 11.09 10.324 19.261zm95.066 35.32c8.535 0 15.453 6.919 15.453 15.454 0 8.531-6.918 15.453-15.453 15.453H363.43v40.25h52.175c8.536 0 15.454 6.918 15.454 15.453s-6.918 15.453-15.454 15.453h-67.628c-8.536 0-15.454-6.918-15.454-15.453V323.77c0-8.532 6.918-15.454 15.454-15.454h69.71c8.532 0 15.454 6.918 15.454 15.454 0 8.535-6.922 15.453-15.454 15.453h-54.261v24.336zm0 0"/></g></svg>