<svg xmlns="http://www.w3.org/2000/svg" viewBox="0 0 464 464"><path d="M456 217.12H353.68v-19.76a8 8 0 00-4.08-6.96L240 128.8V97.44h21.68v11.92a8 8 0 008 8h65.36a8.001 8.001 0 007.52-10.72L336 88l6.64-18.24a8 8 0 00-7.52-10.72h-29.76v-11.6a8 8 0 00-8-8H240v-9.76a8 8 0 00-16 0v99.12l-109.6 61.52a8 8 0 00-4.08 6.96v19.76H8a8 8 0 00-8 8v209.28a8 8 0 008 8h448a8 8 0 008-8v-209.2a8 8 0 00-8-8zM305.36 89.44l-.32-.32V75.36h18.24L320 85.6a7.999 7.999 0 000 5.52l3.76 10.24h-46.08v-3.92h19.68a8 8 0 008-8zm-65.36-34h49.36v26H240v-26zM110.32 426.32H16v-193.2h94.32v193.2zm113.68 0h-42v-91.36h42v91.36zm58 0h-42v-91.36h42v91.36zm56 0h-40v-99.36a8 8 0 00-8-8H174a8 8 0 00-8 8v99.36h-40v-224l106-59.68L337.68 202l.32 23.04v201.28zm110 0h-94.32v-193.2H448v193.2z"/><path d="M232 167.12c-18.526.044-33.52 15.074-33.52 33.6.044 18.513 15.087 33.484 33.6 33.44 18.513-.044 33.484-15.087 33.44-33.6-.044-18.481-15.039-33.44-33.52-33.44zm0 51.04c-9.676-.044-17.484-7.924-17.44-17.6.044-9.613 7.826-17.396 17.44-17.44 9.689.044 17.52 7.911 17.52 17.6h.08c-.044 9.676-7.924 17.484-17.6 17.44zM35.28 250.72h16v32h-16zM74.72 250.72h16v32h-16zM150.32 250.72h32v16h-32zM216 250.72h32v16h-32zM281.68 250.72h32v16h-32zM150.32 288h32v16h-32zM216 288h32v16h-32zM281.68 288h32v16h-32zM35.28 313.68h16v32h-16zM74.72 313.68h16v32h-16zM35.28 376.72h16v32h-16zM74.72 376.72h16v32h-16zM373.28 250.72h16v32h-16zM412.72 250.72h16v32h-16zM373.28 313.68h16v32h-16zM412.72 313.68h16v32h-16zM373.28 376.72h16v32h-16zM412.72 376.72h16v32h-16z"/></svg>