<svg xmlns="http://www.w3.org/2000/svg" viewBox="0 0 512 512" width="512" height="512"><path d="M256 248a48 48 0 10-48-48 48.055 48.055 0 0048 48zm0-80a32 32 0 11-32 32 32.036 32.036 0 0132-32z"/><path d="M256 208h8a8 8 0 000-16v-8a8 8 0 00-16 0v16a8 8 0 008 8zM320 304v-32a8 8 0 00-8-8H200a8 8 0 00-8 8v32a8 8 0 008 8h112a8 8 0 008-8zm-16-8h-96v-16h96zM72 264h64a8 8 0 000-16v-56a8 8 0 00-8-8H80a8 8 0 00-8 8v56a8 8 0 000 16zm16-64h32v48H88zM136 344v-56a8 8 0 00-8-8H80a8 8 0 00-8 8v56a8 8 0 000 16h64a8 8 0 000-16zm-48-48h32v48H88zM136 440v-56a8 8 0 00-8-8H80a8 8 0 00-8 8v56a8 8 0 000 16h64a8 8 0 000-16zm-48-48h32v48H88zM376 264h64a8 8 0 000-16v-56a8 8 0 00-8-8h-48a8 8 0 00-8 8v56a8 8 0 000 16zm16-64h32v48h-32zM376 360h64a8 8 0 000-16v-56a8 8 0 00-8-8h-48a8 8 0 00-8 8v56a8 8 0 000 16zm16-64h32v48h-32zM376 456h64a8 8 0 000-16v-56a8 8 0 00-8-8h-48a8 8 0 00-8 8v56a8 8 0 000 16zm16-64h32v48h-32z"/><path d="M488 160a8 8 0 000-16H346.6L264 83.926V65.444l38.685 6.447A8 8 0 00312 64V32a8 8 0 00-6.685-7.891l-48-8v.008A7.954 7.954 0 00248 24v59.926L165.4 144H24a8 8 0 000 16h8v320h-8a8 8 0 000 16h464a8 8 0 000-16h-8V160zM248 480h-32v-88a40.067 40.067 0 0132-39.195zm16-127.195A40.067 40.067 0 01296 392v88h-32zM256 336a56.064 56.064 0 00-56 56v88h-24V156.074l80-58.182 80 58.182V480h-24v-88a56.064 56.064 0 00-56-56zm40-281.444l-32-5.333V33.444l32 5.333zM48 160h112v320H48zm416 320H352V160h112z"/></svg>